<svg xmlns="http://www.w3.org/2000/svg" viewBox="0 0 287.128 55.415">
  <path d="M237.114 6.85c-5.898 0-10.275 1.52-13.129 4.565-2.854 3.044-4.28 7.876-4.28 14.497 0 6.43 1.426 11.186 4.28 14.268 2.892 3.044 7.27 4.565 13.129 4.565 5.86 0 10.216-1.521 13.07-4.565 2.891-3.082 4.336-7.838 4.336-14.268 0-6.621-1.427-11.453-4.28-14.497-2.854-3.044-7.229-4.565-13.126-4.565zM0 7.418v4.852h11.757v31.903h6.223V12.27h11.7V7.418zm34.665 0v36.755h25.627V39.38H40.885V28.194H58.18V23.4H40.885V12.27h19.407V7.417zm44.39 0l-14.04 36.755h6.45l3.653-9.472h14.78l3.654 9.472h6.393L86.02 7.418zm25.502 0v36.755h6.165V17.521l9.988 20.318h3.767l9.93-20.318v26.652h6.164V7.418h-6.393L122.594 31.22 110.95 7.418zm150.038 0l13.184 23.117v13.638h6.165V30.535l13.184-23.117h-6.448l-9.818 17.867-9.818-17.867zm-17.481 4.738c3.919 0 6.752 1.048 8.502 3.14 1.788 2.093 2.684 5.631 2.684 10.616 0 4.794-.896 8.255-2.684 10.386-1.788 2.13-4.621 3.196-8.502 3.196-3.843 0-6.659-1.065-8.447-3.196-1.788-2.169-2.684-5.63-2.684-10.386 0-4.985.875-8.523 2.625-10.615 1.789-2.093 4.625-3.141 8.506-3.141zM82.48 13.07l6.392 16.835H76.088z"/>
  <path fill="#db430b" d="M155.539 0v49.683H.014v5.732h287.1v-5.732h-82.97V0zm23.532 7.134c4.033 0 7.115 1.007 9.246 3.024 2.13 1.978 3.197 4.738 3.197 8.277 0 2.397-.59 4.47-1.77 6.22-1.142 1.75-2.93 3.729-5.365 5.936l-.97.855c-2.13 1.864-3.768 3.368-4.91 4.51a16.673 16.673 0 00-2.795 3.711h16.208v4.793H167.77v-3.082c.913-2.092 2.17-4.033 3.768-5.821 1.598-1.827 3.615-3.785 6.05-5.878 2.32-2.016 3.974-3.52 4.963-4.509.99-1.027 1.694-2.037 2.113-3.026.418-.99.627-2.208.627-3.654 0-2.016-.588-3.517-1.767-4.506-1.18-1.027-3.064-1.541-5.652-1.541-2.777 0-5.687.57-8.73 1.711V8.675c1.369-.456 2.946-.817 4.734-1.084 1.826-.304 3.558-.457 5.195-.457z" paint-order="markers fill stroke"/>
</svg>
