<?xml version="1.0" encoding="UTF-8" standalone="no"?>
<!-- Created with Inkscape (http://www.inkscape.org/) -->

<svg
   xmlns:dc="http://purl.org/dc/elements/1.1/"
   xmlns:cc="http://creativecommons.org/ns#"
   xmlns:rdf="http://www.w3.org/1999/02/22-rdf-syntax-ns#"
   xmlns:svg="http://www.w3.org/2000/svg"
   xmlns="http://www.w3.org/2000/svg"
   xmlns:sodipodi="http://sodipodi.sourceforge.net/DTD/sodipodi-0.dtd"
   xmlns:inkscape="http://www.inkscape.org/namespaces/inkscape"
   width="287.12811mm"
   height="55.415234mm"
   viewBox="0 0 287.12811 55.415234"
   version="1.1"
   id="svg8"
   inkscape:version="0.92.4 (5da689c313, 2019-01-14)"
   sodipodi:docname="team2-logo-2-sin.svg">
  <defs
     id="defs2" />
  <sodipodi:namedview
     id="base"
     pagecolor="#ffffff"
     bordercolor="#666666"
     borderopacity="1.0"
     inkscape:pageopacity="0.0"
     inkscape:pageshadow="2"
     inkscape:zoom="0.49497475"
     inkscape:cx="-472.11841"
     inkscape:cy="755.26693"
     inkscape:document-units="mm"
     inkscape:current-layer="layer1"
     showgrid="false"
     inkscape:snap-bbox="true"
     showguides="true"
     inkscape:guide-bbox="true"
     fit-margin-top="0"
     fit-margin-left="0"
     fit-margin-right="0"
     fit-margin-bottom="0"
     inkscape:window-width="3047"
     inkscape:window-height="1664"
     inkscape:window-x="793"
     inkscape:window-y="184"
     inkscape:window-maximized="0"
     inkscape:snap-global="false">
    <sodipodi:guide
       position="131.17734,0.81843729"
       orientation="1,0"
       id="guide871"
       inkscape:locked="false" />
    <sodipodi:guide
       position="184.41588,8.4547463"
       orientation="1,0"
       id="guide873"
       inkscape:locked="false" />
  </sodipodi:namedview>
  <metadata
     id="metadata5">
    <rdf:RDF>
      <cc:Work
         rdf:about="">
        <dc:format>image/svg+xml</dc:format>
        <dc:type
           rdf:resource="http://purl.org/dc/dcmitype/StillImage" />
        <dc:title></dc:title>
      </cc:Work>
    </rdf:RDF>
  </metadata>
  <g
     inkscape:label="Taso 1"
     inkscape:groupmode="layer"
     id="layer1"
     transform="translate(76.488922,-68.132557)">
    <flowRoot
       xml:space="preserve"
       id="flowRoot835"
       style="font-style:normal;font-variant:normal;font-weight:normal;font-stretch:normal;font-size:40px;line-height:1.25;font-family:Kanit;-inkscape-font-specification:'Kanit, Normal';font-variant-ligatures:normal;font-variant-caps:normal;font-variant-numeric:normal;text-align:start;letter-spacing:0px;word-spacing:0px;writing-mode:lr-tb;text-anchor:start;fill:#000000;fill-opacity:1;stroke:none"
       transform="scale(0.26458333)"><flowRegion
         id="flowRegion837"><rect
           id="rect839"
           width="34.285713"
           height="142.85715"
           x="491.42856"
           y="665.37683" /></flowRegion><flowPara
         id="flowPara841" /></flowRoot>    <path
       style="font-style:normal;font-variant:normal;font-weight:normal;font-stretch:normal;font-size:10.58333302px;line-height:1.25;font-family:Kanit;-inkscape-font-specification:'Kanit, Normal';font-variant-ligatures:normal;font-variant-caps:normal;font-variant-numeric:normal;text-align:start;letter-spacing:0px;word-spacing:0px;writing-mode:lr-tb;text-anchor:start;fill:#000000;fill-opacity:1;stroke:none;stroke-width:1.42683423"
       d="m 160.62475,74.982477 c -5.89757,0 -10.27487,1.52083 -13.12855,4.56476 -2.85366,3.04391 -4.28051,7.87635 -4.28051,14.49685 0,6.430263 1.42685,11.186373 4.28051,14.268343 2.89173,3.04393 7.26903,4.56477 13.12855,4.56477 5.85955,0 10.21637,-1.52084 13.07003,-4.56477 2.8917,-3.08197 4.33623,-7.83808 4.33623,-14.268343 0,-6.6205 -1.42683,-11.45294 -4.28051,-14.49685 -2.85367,-3.04393 -7.22818,-4.56476 -13.12575,-4.56476 z m -237.113672,0.56851 v 4.85178 h 11.75745 v 31.903123 h 6.2229 V 80.402767 h 11.69891 v -4.85178 z m 34.66483,0 v 36.754903 h 25.62728 v -4.79326 h -19.40718 V 96.326457 h 17.2948 v -4.79326 h -17.2948 v -11.13043 h 19.40718 v -4.85178 z m 44.3907202,0 -14.0398302,36.754903 h 6.4486201 l 3.6534801,-9.47228 H 13.410018 l 3.65346,9.47228 h 6.39289 L 9.5307885,75.550987 Z m 25.5018698,0 v 36.754903 h 6.16437 V 85.653077 l 9.98783,20.318443 h 3.76774 l 9.92932,-20.318443 v 26.652813 h 6.16438 V 75.550987 h -6.3929 l -11.58465,23.80193 -11.64321,-23.80193 z m 150.037772,0 13.18426,23.11638 v 13.638523 h 6.16437 V 98.667367 l 13.1843,-23.11638 h -6.44861 l -9.81787,17.86608 -9.81783,-17.86608 z m -17.48152,4.73753 c 3.91904,0 6.75223,1.04799 8.50248,3.14071 1.78832,2.09267 2.68369,5.63045 2.68369,10.61486 0,4.79416 -0.89537,8.255633 -2.68369,10.386343 -1.78828,2.13075 -4.62149,3.19645 -8.50248,3.19645 -3.84294,0 -6.65844,-1.0657 -8.44674,-3.19645 -1.7883,-2.16878 -2.68369,-5.630253 -2.68369,-10.386343 0,-4.98441 0.87491,-8.52219 2.62518,-10.61486 1.78828,-2.09272 4.62426,-3.14071 8.50525,-3.14071 z M 5.9915785,81.202587 12.384478,98.037547 H -0.40132185 Z"
       id="path884-7-6-3"
       inkscape:connector-curvature="0" />
    <path
       style="opacity:1;fill:#db430b;fill-opacity:1;stroke:none;stroke-width:1.02852941;stroke-linecap:round;stroke-linejoin:round;stroke-miterlimit:4;stroke-dasharray:none;stroke-dashoffset:0;stroke-opacity:1;paint-order:markers fill stroke"
       d="m 79.049958,68.132557 v 49.682823 h -155.52494 v 5.73241 H 210.62525 v -5.73241 H 127.65429 V 68.132557 Z m 23.531622,7.13418 c 4.03318,0 7.11581,1.00707 9.24656,3.02366 2.13075,1.97854 3.19644,4.73821 3.19644,8.27673 0,2.39709 -0.59009,4.46987 -1.76962,6.22012 -1.14146,1.75025 -2.92943,3.72902 -5.36455,5.93585 l -0.96981,0.85554 c -2.13073,1.864403 -3.76885,3.367553 -4.91033,4.509033 -1.1034,1.10341 -2.034161,2.34222 -2.795121,3.71199 h 16.207931 v 4.79329 H 91.281158 v -3.0822 c 0.91316,-2.09268 2.16968,-4.0333 3.767741,-5.8216 1.59804,-1.82636 3.61498,-3.784643 6.050101,-5.877343 2.32099,-2.01657 3.974,-3.51974 4.96327,-4.50901 0.98927,-1.0273 1.69384,-2.03717 2.11239,-3.02646 0.41853,-0.98925 0.62702,-2.2076 0.62702,-3.65346 0,-2.01659 -0.58732,-3.51695 -1.76681,-4.50622 -1.17953,-1.02732 -3.06428,-1.54109 -5.65162,-1.54109 -2.777571,0 -5.687071,0.56962 -8.730992,1.71107 v -5.47881 c 1.36977,-0.45659 2.946451,-0.81772 4.734751,-1.08405 1.82635,-0.3044 3.558471,-0.45704 5.194571,-0.45704 z"
       id="rect855-7-4-0"
       inkscape:connector-curvature="0" />
  </g>
</svg>
